<svg version="1.2" xmlns="http://www.w3.org/2000/svg" viewBox="0 0 1543 1626" width="1543" height="1626"><style></style><path  d="m1515.1 1616h22.1c3.5 0 5.7-3.9 3.8-6.8l-48.7-77.8c-0.8-1.2-0.2-2.8 1.1-3.3 28.1-10.2 48.2-38 48.2-70.7 0-41.4-32.3-74.9-72-74.9h-103.2c-2.5 0-4.5 2-4.5 4.4v224.6c0 2.5 2 4.5 4.5 4.5h19.7c2.5 0 4.5-2 4.5-4.5v-76.9c0-1.3 1-2.3 2.2-2.3h65c1.5 0 2.9 0.8 3.7 2.1l49.8 79.5c0.8 1.3 2.2 2.1 3.8 2.1zm-123.9-202.2c0-1.2 1-2.2 2.3-2.2h76.8c23.6 0 42.8 20.5 42.8 45.8 0 25.3-19.2 45.8-42.8 45.8h-76.8c-1.3 0-2.3-0.9-2.3-2.2zm-347-31.3c2.4 0 4.4 2 4.4 4.5v146.1c0 35 29.5 63.4 65.8 63.4 36.4 0 65.8-28.4 65.8-63.4v-150.6h24.9c2.4 0 4.4 2 4.4 4.5v155.8c0 45.8-42.6 82.9-95.1 82.9-52.5 0-95.1-37.1-95.1-82.9v-155.8c0-2.5 2-4.5 4.5-4.5zm-181 74c0-45.8-42.6-82.9-95.1-82.9-52.6 0-95.1 37.1-95.1 82.9v86.3c0 45.8 42.5 82.9 95.1 82.9 52.5 0 95.1-37.1 95.1-82.9v-2.3zm-29.3 76.5c0 35.1-29.5 63.5-65.8 63.5-36.4 0-65.8-28.4-65.8-63.5v-66.7c0-35.1 29.4-63.5 65.8-63.5 36.3 0 65.8 28.4 65.8 63.5zm-304.1-146.2v20.2c0 2.5-2 4.5-4.5 4.5h-70.8c-1.2 0-2.2 1-2.2 2.2v198.1c0 2.5-2 4.5-4.5 4.5h-19.9c-2.4 0-4.4-2-4.4-4.5v-198.1c0-1.2-1-2.2-2.3-2.2h-71.4c-2.4 0-4.5-2-4.5-4.5v-20.2c0-2.4 2.1-4.4 4.5-4.4h175.5c2.5 0 4.5 2 4.5 4.4zm-324.5 229.5h19.6c3.3 0 5.4-3.3 4.1-6.3l-97.5-224.5c-0.7-1.6-2.3-2.6-4.1-2.6h-23c-1.8 0-3.4 1-4.1 2.6l-99 224.5c-1.3 3 0.8 6.3 4.1 6.3h21.1c1.7 0 3.3-1.1 4-2.7l22.2-50.1c0.7-1.7 2.3-2.7 4-2.7h118.7c1.8 0 3.4 1.1 4.1 2.7l21.8 50.1c0.7 1.6 2.3 2.7 4 2.7zm-138.8-84.2l48-108.9c0.8-1.7 3.3-1.7 4.1 0l47.3 108.9c0.6 1.5-0.5 3.1-2.1 3.1h-95.3c-1.6 0-2.7-1.6-2-3.1zm35.7-391.7l571.8-990.1c23.1-35.5 60.5-55.9 102.9-55.9h0.2c42.3 0 79.8 20.3 103 55.7l574 990.3c13 22.6 41.9 30.2 64.4 17.2 22.6-13.1 30.3-42 17.2-64.5l-574.6-991.3-1.1-1.9c-40.2-62.5-108.6-99.8-182.9-99.8h-0.2c-74.4 0.1-142.8 37.5-183 100.1l-573.4 993c-13 22.6-5.3 51.4 17.3 64.4 7.4 4.3 15.5 6.4 23.5 6.4 16.3 0 32.2-8.5 40.9-23.6zm1008.2-405.9c10.9 19.1 7.2 43.3-9 58.2-85 78.6-198.5 126.5-323.2 126.5-124.7 0-238.2-48-323.3-126.5-16.2-15-19.9-39.2-8.9-58.3 15-26.1 50.4-31.8 72.5-11.4 68.3 63.2 159.5 101.8 259.7 101.8 100.2 0 191.4-38.5 259.7-101.7 22-20.4 57.5-14.7 72.5 11.4z"/></svg>