<svg version="1.2" xmlns="http://www.w3.org/2000/svg" viewBox="0 0 1573 1553" width="1573" height="1553">
	<title>Bitmap (8)-svg</title>
	<style>
		.s0 { fill: #00518e } 
	</style>
	<g id="#ffffffff">
		<path id="Layer" fill-rule="evenodd" class="s0" d="m798.3 4.3c108.7-11.5 220.9 5.2 319.8 52.5 124.8 59 224.4 161.7 296.1 278.1 77.6 126.6 128.8 269.2 150.2 416 15.1 102.5 8.3 207.4-12.8 308.5-27.3 126.8-92.7 247.4-193.6 330.4-103.9 86.4-234.8 136.2-367.4 157-162.8 19.5-326.5-16.6-479.3-71.2-137.9-49.8-273.2-119.7-372.8-229.8-87.2-96.2-137.4-225-137.4-355-2-86.5 20.2-172 55-250.7 25.2-58.3 59.9-111.7 93.9-165.2 109.8-162.6 251.3-308.8 426.6-400.3 69.4-35.5 144.3-60.6 221.7-70.3zm-323.5 376.2c4.4 23.8 5.2 48.2 3.7 72.3-0.2 234.2 0 468.4-0.1 702.7-0.2 26 1.6 52.4-3.8 78.1 26.7-5.7 55-6.2 80.2-17.7 16.9-7.2 20.4-27.1 21.2-43.5-0.4-121.9 2-243.7 1.2-365.7-3-19.4 14.4-36.5 33.8-34.2 133.3 0.1 266.6-0.4 399.8 0.3 15.7-0.7 29.9 12.1 29.1 28.2 1.2 120-0.1 240.1 0.6 360.1 1.6 19.2 1 44.9 21.4 54.5 25.7 11.3 54.2 12.8 81.5 17.7-6.9-25.4-5.3-52.1-5.4-78.1 0-243.5 0-486.9 0-730.3-0.2-15 1.5-30 4.9-44.6-28.1 6.2-58.4 6.4-84.4 20-15.7 9.4-16.6 30-18 46.3-0.5 78.9 0.4 157.7-0.4 236.6 1.3 11.6-6 20.5-13.2 28.5-140.2 3-280.7 0.7-421 1.3-16.6 2.4-29.2-13.3-28.6-28.8-0.4-75.7 0.3-151.3-0.4-227-0.9-19.7 0.6-45-18.7-57-25.5-13.7-55.6-13.6-83.4-19.7z"/>
	</g>
</svg>