<?xml version="1.0" encoding="utf-8"?>
<!-- Generator: Adobe Illustrator 18.0.0, SVG Export Plug-In . SVG Version: 6.00 Build 0)  -->
<!DOCTYPE svg PUBLIC "-//W3C//DTD SVG 1.1//EN" "http://www.w3.org/Graphics/SVG/1.1/DTD/svg11.dtd">
<svg version="1.1" id="Layer_1" xmlns="http://www.w3.org/2000/svg" xmlns:xlink="http://www.w3.org/1999/xlink" x="0px" y="0px"
	 viewBox="23.3 64.4 353.9 270" enable-background="new 23.3 64.4 353.9 270" xml:space="preserve">
<g>
	<polyline fill="#1E4A6E" points="60.4,333.9 60.4,324.1 50.2,324.1 50.2,333.9 46.2,333.9 46.2,311.6 50.2,311.6 50.2,320.5 
		60.4,320.5 60.4,311.6 64.4,311.6 64.4,333.9 	"/>
	<path fill="#1E4A6E" d="M79.4,314.5c-4.2,0-6.7,3.5-6.7,8.2c0,4.5,2.6,8.2,6.7,8.2c4.2,0,6.6-3.6,6.6-8.2
		C86.1,318.2,83.5,314.5,79.4,314.5 M79.4,334.3c-5.8,0-10.7-4.4-10.7-11.6s5-11.6,10.7-11.6s10.7,4.3,10.7,11.6
		C90.1,329.9,85.1,334.3,79.4,334.3"/>
	<polyline fill="#1E4A6E" points="102.9,315.1 102.9,333.9 98.9,333.9 98.9,315.1 91.9,315.1 91.9,311.6 109.7,311.6 110.2,315.1 	
		"/>
	<polyline fill="#1E4A6E" points="114.6,333.9 114.6,311.6 128.4,311.6 128.4,315.1 118.5,315.1 118.5,320.5 126.4,320.5 127,324 
		118.5,324 118.5,330.4 128.7,330.4 128.7,333.9 	"/>
	<polyline fill="#1E4A6E" points="134.1,333.9 134.1,311.6 138,311.6 138,330.5 146.5,330.5 147,333.9 	"/>
	<path fill="#1E4A6E" d="M157.5,334.1c-2.7,0-5.4-0.7-7.7-1.7l0.6-3.5c2.1,1.1,5,1.9,7.3,1.9c2.5,0,4.3-1.1,4.3-3s-1.2-2.6-4.4-3.6
		c-4.7-1.6-7-3.1-7-6.5c0-3.8,3.2-6.4,7.5-6.4c2.5,0,4.8,0.5,6.4,1.3l-0.6,3.7c-2-1.1-4-1.7-6-1.7c-2.2,0-3.7,1.2-3.7,2.6
		c0,1.7,1.2,2.3,4.7,3.5c4.7,1.6,6.7,3.2,6.7,6.7C165.6,331.5,162.3,334.1,157.5,334.1"/>
	<path fill="#1E4A6E" d="M186.5,323.6c-1.9,1-3,2.4-3,4.2c0,2.1,1.5,3.5,3.9,3.5c1.7,0,3.3-0.7,4.6-2.1 M197,334.1l-3-2.9
		c-1.8,2-4.2,3.2-6.9,3.2c-4.8,0-7.4-2.3-7.4-6.1c0-3.1,2-5.2,4.9-6.7c-1.4-1.6-2.1-2.9-2.1-4.9c0-3,2.2-5.5,6.2-5.5
		c2.2,0,4.2,0.6,5.8,1.4l-0.6,3.5c-1.7-1.1-3.4-1.7-5-1.7c-1.8,0-2.6,1-2.6,2.4l1.9,3.5l5.7,5.9c0.7-1.5,1.1-3.2,1.3-5.3l3.2,0.7
		c-0.4,2.6-1.1,4.9-2.2,6.9l4.8,4.8L197,334.1z"/>
	<path fill="#1E4A6E" d="M222.1,315h-2.9v7.2h2.9c2.9,0,4.5-1.3,4.5-3.7C226.6,316.2,225,315,222.1,315 M228.1,334.1l-6.5-8.9h-2.4
		v8.6h-4v-22.3h6.9c5.1,0,8.4,2.4,8.4,6.8c0,3.3-1.8,5.4-4.7,6.3l6.3,8.5L228.1,334.1z"/>
	<polyline fill="#1E4A6E" points="236.7,333.9 236.7,311.6 250.6,311.6 250.6,315.1 240.7,315.1 240.7,320.5 248.6,320.5 249.2,324 
		240.7,324 240.7,330.4 250.9,330.4 250.9,333.9 	"/>
	<path fill="#1E4A6E" d="M262.9,334.1c-2.7,0-5.4-0.7-7.7-1.7l0.6-3.5c2.1,1.1,5,1.9,7.3,1.9c2.5,0,4.3-1.1,4.3-3s-1.2-2.6-4.4-3.6
		c-4.7-1.6-7-3.1-7-6.5c0-3.8,3.2-6.4,7.5-6.4c2.6,0,4.8,0.5,6.5,1.3l-0.6,3.7c-2-1.1-4-1.7-6-1.7c-2.2,0-3.7,1.2-3.7,2.6
		c0,1.7,1.2,2.3,4.7,3.5c4.7,1.6,6.7,3.2,6.7,6.7C271.1,331.5,267.8,334.1,262.9,334.1"/>
	<path fill="#1E4A6E" d="M285.1,314.5c-4.2,0-6.7,3.5-6.7,8.2c0,4.5,2.6,8.2,6.7,8.2c4.2,0,6.6-3.6,6.6-8.2
		C291.8,318.2,289.2,314.5,285.1,314.5 M285.3,334.3c-5.7,0-10.7-4.4-10.7-11.6s5-11.6,10.7-11.6c5.8,0,10.7,4.3,10.7,11.6
		C296,329.9,291,334.3,285.3,334.3"/>
	<path fill="#1E4A6E" d="M307.5,315h-2.9v7.2h2.9c2.8,0,4.5-1.3,4.5-3.7C312,316.2,310.4,315,307.5,315 M313.5,334.1l-6.5-8.9h-2.4
		v8.6h-3.9v-22.3h6.9c5.1,0,8.4,2.4,8.4,6.8c0,3.3-1.8,5.4-4.7,6.3l6.3,8.5L313.5,334.1z"/>
	<polyline fill="#1E4A6E" points="330.3,315.1 330.3,333.9 326.3,333.9 326.3,315.1 319.3,315.1 319.3,311.6 337.1,311.6 
		337.6,315.1 	"/>
	<path fill="#1E4A6E" d="M347.4,334.1c-2.7,0-5.3-0.7-7.6-1.7l0.6-3.5c2.1,1.1,5,1.9,7.3,1.9c2.5,0,4.3-1.1,4.3-3s-1.2-2.6-4.4-3.6
		c-4.7-1.6-7.1-3.1-7.1-6.5c0-3.8,3.2-6.4,7.5-6.4c2.5,0,4.8,0.5,6.4,1.3l-0.6,3.7c-2-1.1-4-1.7-6-1.7c-2.2,0-3.7,1.2-3.7,2.6
		c0,1.7,1.2,2.3,4.7,3.5c4.7,1.6,6.7,3.2,6.7,6.7C355.6,331.5,352.3,334.1,347.4,334.1"/>
	<path fill="#1E4A6E" d="M196,64.4c-39.5,0-68.7,25.2-68.7,52.2c0,13.9,7.9,25.7,17.7,33.8l0.8-0.5c-7.8-6.5-14.9-16.6-14.9-30.5
		c2.1-29.5,38.5-46.1,70.6-46.1c22.9,0,64,5.3,64,43.5c0,20-21.3,45.9-66.1,45.9c-22.8,0-40.6-12.3-40.6-29.9
		c0-15.2,11.9-26.1,29.6-26.1c4.9,0,9.5,1.2,13,2.1c-7.4-1.4-18.8,0.6-24.8,5.3v25.8h21.8v-29.4c4.1,0.7,7.4,2.3,9.6,3.7v25.7h5.7
		c-4.5,5.1-12.8,8.1-20.1,7v1.1c20.8,1.6,29.7-8.2,29.7-19.4c0-13.1-12.3-20.7-24.8-22.3V86.8h-21.8v19.6
		c-14.2,2.9-28.1,11.3-28.1,25.2c0,21.5,30,34.8,56,34.8c39.7,0,70.3-19.2,70.3-46.1C274.9,87.7,230.7,64.4,196,64.4 M226.3,129.3
		c0-9.5-6.5-17.1-18.3-20.8V86.8h21.9v53H223C225.4,136.4,226.3,132.6,226.3,129.3"/>
	<polyline fill="#1E4A6E" points="100.7,198.2 100.7,274.3 106.6,275.1 106.6,279.6 77.3,279.6 77.3,275.1 83.6,274.3 83.6,239.7 
		46.2,239.7 46.2,274.3 52,275.1 52,279.6 23.3,279.6 23.3,275.1 29,274.3 29,198.2 23.3,197.4 23.3,193 52,193 52,197.4 
		46.2,198.2 46.2,230.7 83.6,230.7 83.6,198.2 77.3,197.4 77.3,193 106.6,193 106.6,197.4 	"/>
	<path fill="#1E4A6E" d="M141.5,198.6c0,5.8-3.9,10.1-9.3,10.1c-5.5,0-9.3-3.9-9.3-9.7c0-5.5,3.8-9.8,9.3-9.8
		C137.6,189.1,141.5,193.4,141.5,198.6 M139.5,274.8l5.5,0.8v3.9h-26.9v-3.9l5.5-0.8v-52.1l-5.5-0.8V218h21.4V274.8z"/>
	<polyline fill="#1E4A6E" points="156.7,275.6 162.1,274.8 162.1,195.2 156.7,194.4 156.7,190.4 178.1,190.4 178.1,274.8 
		183.6,275.6 183.6,279.6 156.7,279.6 	"/>
	<path fill="#1E4A6E" d="M216.1,218h14.5v5.8h-14.5v36.6c0,9.5,2,12.5,10.5,12.5c3.2,0,5.9,0,8.5-0.6v4.2
		c-7.8,2.8-14.3,3.9-19.8,3.9c-12.3,0-15.2-5.6-15.2-16.4v-40.2h-11.2V218h11.7v-12.9l15.6-4.7"/>
	<path fill="#1E4A6E" d="M285,249c0-19.5-5.8-28-15.1-28c-9.1,0-14.8,8.1-14.8,28c0,19.5,5.8,27.6,14.8,27.6
		C279.6,276.7,285,268.9,285,249 M302.6,249.4c0,19.2-12.9,32-33.1,32c-19.6,0-32-8.4-32-32c0-19.8,12.9-33.1,33.1-33.1
		C290.5,216.3,302.6,228.2,302.6,249.4"/>
	<path fill="#1E4A6E" d="M377.2,275.6v3.9h-26.9v-3.9l5.4-0.8v-35c0-9.7-3.5-14.1-10.9-14.1c-3.4,0-8.8,2.4-12.7,5.1v43.9l5.5,0.8
		v3.9h-27v-3.9l5.5-0.8V223l-5.5-0.8V218h21.5v8.5c6.7-5.4,13.1-9.7,22.2-9.7c12.1,0,17.5,7.1,17.5,21.1v37"/>
	<path fill="#1E4A6E" d="M270,157.9h-2v-0.7h4.8v0.7H271v7.1h-1 M278.4,163.6L278.4,163.6l2.5-6.4h1.2v7.8h-0.9v-5.9l0,0l-2.3,5.9
		H278l-2.4-5.9l0,0v5.9h-0.9v-7.8h1.3L278.4,163.6z"/>
</g>
</svg>
