<?xml version="1.0" encoding="UTF-8" standalone="no"?>
<!-- Created with Inkscape (http://www.inkscape.org/) -->

<svg
   xmlns:dc="http://purl.org/dc/elements/1.1/"
   xmlns:cc="http://creativecommons.org/ns#"
   xmlns:rdf="http://www.w3.org/1999/02/22-rdf-syntax-ns#"
   xmlns:svg="http://www.w3.org/2000/svg"
   xmlns="http://www.w3.org/2000/svg"
   xmlns:sodipodi="http://sodipodi.sourceforge.net/DTD/sodipodi-0.dtd"
   xmlns:inkscape="http://www.inkscape.org/namespaces/inkscape"
   version="1.1"
   id="svg815"
   xml:space="preserve"
   width="534.02679"
   height="129.40338"
   viewBox="0 0 534.02679 129.40338"
   sodipodi:docname="Hyatt Logo.svg"
   inkscape:version="0.92.2 (5c3e80d, 2017-08-06)"><metadata
     id="metadata821"><rdf:RDF><cc:Work
         rdf:about=""><dc:format>image/svg+xml</dc:format><dc:type
           rdf:resource="http://purl.org/dc/dcmitype/StillImage" /><dc:title></dc:title></cc:Work></rdf:RDF></metadata><defs
     id="defs819"><clipPath
       clipPathUnits="userSpaceOnUse"
       id="clipPath863"><path
         d="M 18,591.75 H 204 V 774 H 18 Z"
         id="path861"
         inkscape:connector-curvature="0" /></clipPath><clipPath
       clipPathUnits="userSpaceOnUse"
       id="clipPath881"><path
         d="M 408,18 H 594 V 391.5 H 408 Z"
         id="path879"
         inkscape:connector-curvature="0" /></clipPath><clipPath
       clipPathUnits="userSpaceOnUse"
       id="clipPath895"><path
         d="M 18,400.5 H 204 V 582.75 H 18 Z"
         id="path893"
         inkscape:connector-curvature="0" /></clipPath><clipPath
       clipPathUnits="userSpaceOnUse"
       id="clipPath909"><path
         d="M 18,18 H 399 V 391.5 H 18 Z"
         id="path907"
         inkscape:connector-curvature="0" /></clipPath><clipPath
       clipPathUnits="userSpaceOnUse"
       id="clipPath923"><path
         d="M 213,591.75 H 594 V 774 H 213 Z"
         id="path921"
         inkscape:connector-curvature="0" /></clipPath></defs><sodipodi:namedview
     pagecolor="#ffffff"
     bordercolor="#666666"
     borderopacity="1"
     objecttolerance="10"
     gridtolerance="10"
     guidetolerance="10"
     inkscape:pageopacity="0"
     inkscape:pageshadow="2"
     inkscape:window-width="640"
     inkscape:window-height="480"
     id="namedview817"
     showgrid="false"
     fit-margin-top="0"
     fit-margin-left="0"
     fit-margin-right="0"
     fit-margin-bottom="0"
     inkscape:zoom="0.81912879"
     inkscape:cx="298.90479"
     inkscape:cy="-244.47566"
     inkscape:current-layer="g823" /><g
     id="g823"
     inkscape:groupmode="layer"
     inkscape:label="Masterbrand+Fact+Sheet+_+Q4+2016%5B2%5D_+FINAL"
     transform="matrix(1.3333333,0,0,-1.3333333,-109.09521,901.87904)"><g
       id="g857"
       style="fill:#4b77a9;fill-opacity:1"
       transform="matrix(3.2538484,0,0,3.2538484,-95.035661,-1594.7694)"><g
         id="g859"
         clip-path="url(#clipPath863)"
         style="fill:#4b77a9;fill-opacity:1"><g
           id="g865"
           transform="translate(117.7602,681.1927)"
           style="fill:#4b77a9;fill-opacity:1"><path
             d="M 0,0 -4.67,11.742 -9.313,0.078 c 1.208,0.038 2.43,0.06 3.679,0.06 C -3.706,0.138 -1.83,0.091 0,0 M 38.758,-11.905 C 28.75,-7.553 17.495,-4.33 4.27,-3.242 l 4.027,-9.78 H 5.18 l -3.975,9.991 c -2.221,0.123 -4.499,0.192 -6.834,0.192 -1.656,0 -3.282,-0.034 -4.882,-0.099 l -4.013,-10.084 h -3.119 l 4.083,9.922 c -14.028,-0.92 -25.975,-4.244 -36.469,-8.802 v 0.616 c 7.004,3.909 13.93,6.827 21.407,8.733 V 3.45 l -8.421,12.927 h 3.129 l 6.682,-10.741 6.685,10.741 h 3.125 L -25.841,3.45 -25.843,-1.895 c 4.279,0.929 8.752,1.543 13.535,1.834 l 6.94,16.866 h 1.391 l 6.995,-17 c 4.695,-0.375 9.096,-1.066 13.315,-2.077 v 16.4 h -6.88 v 2.249 H 26.059 V 14.128 H 19.182 V -3.011 c 6.784,-1.895 13.149,-4.651 19.576,-8.281 z M 49.884,16.377 H 33.28 v -2.249 h 6.879 v -20.27 h 2.847 v 20.27 h 6.878 z M -45.435,-6.142 -48.282,-6.145 V 4.967 H -60.56 V -6.142 h -2.847 v 22.519 h 2.847 V 7.214 h 12.278 v 9.163 h 2.847 z"
             style="fill:#4b77a9;fill-opacity:1;fill-rule:nonzero;stroke:none"
             id="path867"
             inkscape:connector-curvature="0" /></g><g
           id="g869"
           transform="translate(175.1554,695.8162)"
           style="fill:#4b77a9;fill-opacity:1"><path
             d="m 0,0 c -0.136,0.08 -0.356,0.119 -0.658,0.119 h -0.464 v -1.127 h 0.491 c 0.233,0 0.403,0.025 0.52,0.07 C 0.1,-0.849 0.21,-0.689 0.21,-0.453 0.21,-0.228 0.138,-0.078 0,0 m -0.586,0.487 c 0.381,0 0.663,-0.037 0.844,-0.109 0.319,-0.134 0.478,-0.398 0.478,-0.786 0,-0.275 -0.1,-0.48 -0.3,-0.612 C 0.328,-1.089 0.182,-1.136 -0.013,-1.167 0.234,-1.205 0.408,-1.306 0.522,-1.47 0.63,-1.634 0.687,-1.795 0.687,-1.952 v -0.225 c 0,-0.073 0.003,-0.15 0.008,-0.229 C 0.7,-2.488 0.708,-2.541 0.722,-2.57 L 0.741,-2.608 H 0.234 c -0.003,0.011 -0.006,0.02 -0.009,0.03 -0.003,0.011 -0.003,0.025 -0.006,0.037 l -0.013,0.1 v 0.246 c 0,0.356 -0.101,0.592 -0.293,0.707 -0.118,0.065 -0.316,0.1 -0.607,0.1 h -0.428 v -1.22 H -1.67 v 3.095 z m -1.658,0.16 c -0.473,-0.475 -0.707,-1.049 -0.707,-1.719 0,-0.675 0.233,-1.251 0.703,-1.727 0.471,-0.478 1.042,-0.714 1.715,-0.714 0.672,0 1.244,0.236 1.718,0.714 0.469,0.476 0.705,1.052 0.705,1.727 0,0.67 -0.236,1.244 -0.705,1.719 C 0.708,1.12 0.136,1.358 -0.533,1.358 -1.202,1.358 -1.77,1.12 -2.244,0.647 m 3.705,-3.714 c -0.548,-0.555 -1.212,-0.831 -1.994,-0.831 -0.781,0 -1.445,0.276 -1.995,0.831 -0.544,0.553 -0.816,1.217 -0.816,1.998 0,0.775 0.275,1.439 0.826,1.989 0.548,0.549 1.21,0.824 1.985,0.824 0.782,0 1.446,-0.275 1.994,-0.824 0.553,-0.545 0.828,-1.211 0.828,-1.989 0,-0.778 -0.275,-1.444 -0.828,-1.998"
             style="fill:#4b77a9;fill-opacity:1;fill-rule:nonzero;stroke:none"
             id="path871"
             inkscape:connector-curvature="0" /></g></g></g></g></svg>