<?xml version="1.0" encoding="utf-8"?>
<!-- Generator: Adobe Illustrator 24.2.1, SVG Export Plug-In . SVG Version: 6.00 Build 0)  -->
<svg version="1.1" id="Layer_1" xmlns="http://www.w3.org/2000/svg" xmlns:xlink="http://www.w3.org/1999/xlink" x="0px" y="0px"
	 viewBox="0 0 552.2 275.2" style="enable-background:new 0 0 552.2 275.2;" xml:space="preserve">
<style type="text/css">
	.st0{fill:#231F20;}
	.st1{fill:#CDA62D;}
</style>
<path id="path82" class="st0" d="M0.9,184.8c1.9,5.5,7.1,9.7,12.8,9.7c5.9,0,12.2-4.6,12.2-12.6C25.9,168,2,173.5,2,155.4
	c0-10.3,8.6-15.3,17.3-15.3c3.5,0,9,1.2,11.7,3.8c0,3.1,0,7,0,7c-1.9-5.2-6-8.3-10.3-8.3c-5,0-9.8,3-10.2,10.3
	c-0.7,13.3,24,8.8,24,25.8c0,11.4-10.9,18.2-20.7,18.2c-3.6,0-10.4-1.7-12.9-4.7C0.8,188.9,0.9,184.8,0.9,184.8"/>
<path id="path84" class="st0" d="M411.6,171.1h22.6v-5h-22.6V171.1z"/>
<path id="path88" class="st0" d="M88.7,166.3v27.4c-0.2,1.2-2.3,2.3-2.3,2.3c3.6,0,11.9,0,14.4,0c0,0-2.2-1.2-2.3-2.3v-50
	c0.1-1.2,2.3-2.3,2.3-2.3c-2.4,0-10.7,0-14.4,0c0,0,2.1,1.1,2.3,2.3v20c-4-0.1-19.3-0.1-23.2,0v-20c0.2-1.3,2.3-2.3,2.3-2.3
	c-3.6,0-11.9,0-14.3,0c0,0,2.2,1.2,2.3,2.3v50c-0.1,1.1-2.3,2.3-2.3,2.3c2.4,0,10.8,0,14.3,0c0,0-2.1-1.1-2.3-2.3v-27.4
	C71.1,166.2,83,166.2,88.7,166.3"/>
<path id="path92" class="st0" d="M387.3,165v-21.3c0.2-1.3,2.3-2.3,2.3-2.3c-3.6,0-11.9,0-14.4,0c0,0,2.2,1.2,2.3,2.3v50
	c-0.1,1.1-2.3,2.3-2.3,2.3c2.4,0,10.8,0,14.4,0c0,0-2.1-1.1-2.3-2.3"/>
<path id="path96" class="st0" d="M456.5,195.9c0,0,2.2-1.2,2.3-2.3v-50c-0.1-1.2-2.3-2.3-2.3-2.3c2.4,0,10.7,0,14.3,0
	c0,0-2.1,1.1-2.3,2.3v49.8h0.1c4.4,0.2,11.4-0.5,15.7-0.4c1.3,0,3.6-0.4,4.4-1.3c0,1.1-0.4,3.1-1,4.3
	C487.7,195.9,458.9,196,456.5,195.9"/>
<path id="path100" class="st0" d="M219.2,177.6c-1.4-1.7-30.6-36.3-30.6-36.3s-7.9,0-10,0c0,0,2,0.5,3.4,3.3c0,0,0,46.7,0,49
	c-0.2,1.2-2.3,2.3-2.3,2.3c3.6,0,4.6,0,7.1,0c0,0-2.2-1.2-2.3-2.3c0-2.9,0.1-41.8,0.1-41.8s-0.4-2.8,1.7,0
	c2.6,3.3,38.7,46.1,38.7,46.1s0.1-51.3,0.1-54.2c0.1-1.1,2.3-2.3,2.3-2.3c-2.4,0-6.1,0-9.7,0c0,0,2.1,1.1,2.3,2.3
	c0,2.4,0,33.9,0,33.9"/>
<path id="path104" class="st0" d="M129.4,175.9h16.3l-8.2-20.8L129.4,175.9z M140.9,139.6c0,0,20.6,52.1,21.7,53.9
	c1.1,1.8,2.9,2.5,2.9,2.5c-2,0-12.1,0-14,0c-0.1-0.2,1.8-0.9,1.2-2.5c-1.4-3.7-4.5-11-5.9-14.9h-18.2c-1.3,3.6-4.7,13.2-5.3,15
	c-0.5,1.8,0.8,2.1,1.4,2.4c-1.5,0-7.3,0-8.9,0c0,0,2.1-0.8,2.4-2.4c0.3-1.7,21.1-54,21.1-54"/>
<path id="path108" class="st0" d="M514.3,175.9h16.3l-8.2-20.8L514.3,175.9z M525.7,139.6c0,0,20.6,52.1,21.7,53.9
	c1.1,1.8,2.9,2.5,2.9,2.5c-2,0-12.1,0-14,0c-0.1-0.2,1.8-0.9,1.2-2.5c-1.4-3.7-4.5-11-6-14.9h-18.2c-1.3,3.6-4.7,13.2-5.2,15
	c-0.6,1.8,0.8,2.1,1.4,2.4c-1.5,0-7.5,0-8.9,0c0,0,2.1-0.8,2.4-2.4c0.3-1.7,21.1-54,21.1-54"/>
<path id="path112" class="st0" d="M287.2,191.4c-3.7,2.2-8.4,2.7-12.8,2.7c-9.7,0-20.1-9.8-20.1-25.7c0-16.2,8.7-25.1,19.3-25.1
	c7.1,0,15.4,4.1,19.2,11.2c0,0,0-6.1-0.1-8.8c-4-1.7-9.2-4.9-18.8-4.9c-16.1,0-29.2,9.3-29.2,28c0,16.2,11.4,27.7,27.7,27.7
	c7.6,0,14.3-0.8,20.4-3.1c0,0,0-14.7,0-17.6c0.1-1.1,2.3-2.3,2.3-2.3c-2.4,0-6.7,0-10.3,0c0,0,2.1,1.1,2.3,2.3"/>
<path id="path116" class="st0" d="M327.5,168.3c1.6,0.1,4.8,0.5,7.9-0.4c5.7-1.6,7.9-6,7.9-12.3c0-5.5-2.9-10.9-8.3-11.9
	c-4.1-0.8-4.8-0.7-7.5-0.1V168.3z M327.5,193.6c0.1,1.2,2.3,2.3,2.3,2.3c-2.4,0-6.9-0.1-8,0c-1.2-0.1-4,0-6.4,0c0,0,2.2-1.2,2.3-2.3
	v-50c-0.1-1.2-2.3-2.3-2.3-2.3c3,0,15.2,0,15.2,0c11.2,0,19.7,5.3,19.7,13.4c0,9.3-8.8,13.5-11,14.5c2.3,1.4,5.1,4.8,6.2,6.3
	c3,4.3,5.3,8.7,6.7,11c4.9,8,7.5,8.8,7.5,8.8c-3.3,1.1-6.4,1.4-8.3,0.9c-6.5-1.5-12.8-23.2-17.4-24.8c-1.4-0.5-6.5-0.4-6.5-0.4"/>
<path id="path120" class="st0" d="M72.7,263.1v10.8h2.2v0.7h-7.7v-0.7h2v-21.4h-2v-0.7h7.7v0.7h-2.2v9.9h8.7v-9.9h-2.2v-0.7H87v0.7
	h-2v21.4h2v0.7h-7.7v-0.7h2.2v-10.8"/>
<path id="path124" class="st0" d="M127.9,273.9h2.5v-21.4h-2.1c-1.5,0-1.9,0.3-3.2,6.5h-0.7v-7.3H140v7.3h-0.7
	c-1.4-6.2-1.7-6.5-3.2-6.5H134v21.4h2.5v0.7h-8.5"/>
<path id="path128" class="st0" d="M150,274.6v-0.7h2v-21.4h-2v-0.7h16.8v7.3h-0.7c-1.8-6.2-2.3-6.6-4-6.6h-6.5v9.9h2.6
	c1.7,0,2.5-1,3.1-4.6h0.7v9.8h-0.7c-0.7-3.5-1.5-4.6-3.1-4.6h-2.6v10.8h5.8c2.3,0,3-0.9,5-7.7h0.8v8.5"/>
<path id="path132" class="st0" d="M184.1,273.9h4.9c2.2,0,2.8-0.4,4.8-8.4h0.7v9.2h-15.9v-0.7h2v-21.4h-2v-0.7h8.9v0.7h-3.3"/>
<path id="path136" class="st0" d="M205,266.1c1.4,6.1,2.6,8.4,5.8,8.4c3,0,5.4-2,5.4-4.8c0-6.5-12.3-4-12.3-11.8
	c0-3.9,3-6.5,7.5-6.5c2.5,0,4.5,0.6,6.2,1.3v6.6h-0.7c0,0-0.3-1.2-1.2-3.8c-0.8-2.6-2.4-3.4-4.6-3.4c-2.9,0-5,1.9-5,4.4
	c0,2.5,1.7,3.1,6.2,4.8c4.9,1.8,6.6,3.1,6.6,6.7c0,4.2-3.5,7.3-8.6,7.3c-1.9,0-4.7-0.9-6.1-1.8v-7.2"/>
<path id="path140" class="st0" d="M257.4,261.5h3.6l-0.4,1.8h0.1c0.9-1.1,2.3-2.2,4.1-2.2c2,0,3.3,1,2.7,3.8l-2,9.2h1.4l-0.1,0.6
	h-5.3l0.1-0.6h1.5l2-9.5c0.4-1.9,0-2.5-1.3-2.5c-1.4,0-3,1.2-3.6,3.9l-1.7,8.1h1.5l-0.1,0.6h-5.3l0.1-0.6h1.4l2.6-12h-1.4"/>
<path id="path144" class="st0" d="M277.6,274.5c1.7,0,3.1-2,4-6.2c1-4.6,0.3-6.5-1.4-6.5c-1.5,0-2.8,1.2-3.9,6.5
	C275.3,273,276,274.5,277.6,274.5 M280.3,274.6l0.3-1.6h-0.1c-0.7,1.2-1.8,2-3.6,2c-2.4,0-4.3-2.5-3.3-7c0.9-4.5,3.7-7,6.3-7
	c1.3,0,2.2,0.7,2.5,2h0.1l1.2-5.7h-1.2l0.1-0.6h3.7l-3.7,17.3h1.2l-0.1,0.6"/>
<path id="path148" class="st0" d="M246.2,267.3c-3.2,1.4-5.4,0.4-6.2,4.1c-0.4,2,0.2,2.7,1.5,2.7c1.9,0,3.7-2,4.3-4.8L246.2,267.3z
	 M240.1,266.2l0.9-4.2c1.5-0.6,2.8-1,4.2-1c3.2,0,4.3,1.7,3.9,3.3l-2,9.7h1.2l-0.1,0.6h-3.5l0.5-2.3h-0.1c-1,1.6-2.7,2.7-4.5,2.7
	c-2.3,0-3.6-1.3-3.1-3.6c1-4.5,6-3.2,8.9-4.8l0.6-2.7c0.4-1.6-0.4-2.3-1.8-2.3c-1.8,0-2.5,0.9-4.5,4.5"/>
<path id="path152" class="st0" d="M106.3,274.4c3.7,0,5.4-2.6,5.4-11.2c0-8.7-1.8-11.2-5.4-11.2c-3.7,0-5.4,2.6-5.4,11.2
	C100.9,271.9,102.7,274.4,106.3,274.4 M106.3,251.3c5,0,9.5,4.7,9.5,12c0,7.3-4.5,11.9-9.5,11.9c-5,0-9.5-4.7-9.5-11.9
	C96.8,256,101.3,251.3,106.3,251.3"/>
<path id="path156" class="st0" d="M311.1,262.5h1.9c3.9,0,5.8-1.9,5.8-5.2c0-2.3-1.2-4.8-4.8-4.8h-3V262.5z M305.6,274.6v-0.7h2
	v-21.4h-2v-0.7h9.6c5.5,0,7.5,2.7,7.5,5.5c0,3.2-2.5,5.4-7.3,5.7l7.9,10.9h1.6v0.7h-5.2l-8.4-11.6h-0.1v10.9h2.5v0.7"/>
<path id="path160" class="st0" d="M363,266.1c1.4,6.1,2.6,8.4,5.8,8.4c3,0,5.4-2,5.4-4.8c0-6.5-12.2-4-12.2-11.8
	c0-3.9,3-6.5,7.5-6.5c2.5,0,4.5,0.6,6.2,1.3v6.6h-0.7l-1.2-3.8c-0.8-2.6-2.4-3.4-4.6-3.4c-2.9,0-5,1.9-5,4.4c0,2.5,1.7,3.1,6.2,4.8
	c4.9,1.8,6.6,3.1,6.6,6.7c0,4.2-3.5,7.3-8.6,7.3c-1.9,0-4.7-0.9-6.1-1.8v-7.2"/>
<path id="path164" class="st0" d="M396.2,274.5c3.7,0,5.4-2.6,5.4-11.2c0-8.7-1.7-11.2-5.4-11.2c-3.7,0-5.4,2.6-5.4,11.2
	C390.8,271.9,392.5,274.5,396.2,274.5 M396.2,251.3c5,0,9.5,4.7,9.5,12c0,7.3-4.5,11.9-9.5,11.9c-5,0-9.5-4.7-9.5-11.9
	C386.7,256,391.2,251.3,396.2,251.3"/>
<path id="path168" class="st0" d="M420.5,262.5h1.9c3.9,0,5.9-1.9,5.9-5.2c0-2.3-1.2-4.8-4.8-4.8h-3V262.5z M415,274.6v-0.7h2v-21.4
	h-2v-0.7h9.6c5.5,0,7.5,2.7,7.5,5.5c0,3.2-2.5,5.4-7.3,5.7l7.9,10.9h1.6v0.7H429l-8.4-11.6h-0.1v10.9h2.5v0.7"/>
<path id="path172" class="st0" d="M445.6,273.9h2.5v-21.4h-2.1c-1.5,0-1.8,0.3-3.2,6.5H442v-7.3h15.7v7.3H457
	c-1.4-6.2-1.7-6.5-3.2-6.5h-2.1v21.4h2.5v0.7h-8.5"/>
<path id="path176" class="st0" d="M468.9,266.1c1.4,6.1,2.7,8.4,5.9,8.4c3,0,5.4-2,5.4-4.8c0-6.5-12.2-4-12.2-11.8
	c0-3.9,3-6.5,7.5-6.5c2.5,0,4.5,0.6,6.2,1.3v6.6h-0.8l-1.2-3.8c-0.8-2.6-2.4-3.4-4.6-3.4c-2.9,0-5,1.9-5,4.4c0,2.5,1.7,3.1,6.2,4.8
	c4.9,1.8,6.6,3.1,6.6,6.7c0,4.2-3.5,7.3-8.6,7.3c-1.9,0-4.7-0.9-6.1-1.8v-7.2"/>
<path id="path180" class="st0" d="M333.1,274.6v-0.7h2v-21.4h-2v-0.7h16.8v7.3h-0.8c-1.8-6.2-2.3-6.6-4-6.6h-6.5v9.9h2.6
	c1.6,0,2.4-1,3.1-4.6h0.7v9.8h-0.7c-0.7-3.5-1.4-4.6-3.1-4.6h-2.6v10.8h5.8c2.3,0,3-0.9,5-7.7h0.7v8.5"/>
<path id="path182" class="st0" d="M0,225h552.2v-2H0V225z"/>
<path id="path186" class="st1" d="M306.3,59.2c-9,3.4-21.7,9.1-29.1,19c-0.9,1.1-2.1,1.2-3.2-0.1c-2.1-2.5-12.8-13.6-27.9-13.6
	c-3.7,0-9.4,0.9-13.1,2.1v37c2.3-1.7,7.5-3.5,12.5-3.5c7.7,0,22.4,6.6,27.8,11.5c2,1.8,3.5,1.7,5.3,0c7.9-7.7,22-14.5,40-14.5V52
	h-73.2c9-3.4,21.7-9.2,29.1-19c0.9-1.1,2.1-1.2,3.2,0.1c2.1,2.5,12.8,13.6,27.9,13.6c3.8,0,9.4-0.9,13.1-2.1V9.3
	c-2.3,1.7-7.5,3.5-12.5,3.5c-7.7,0-22.4-6.6-27.8-11.5c-2-1.8-3.6-1.7-5.3,0C265.1,9,251,15.8,233,15.8v43.4"/>
</svg>
