<?xml version="1.0" encoding="UTF-8" standalone="no"?>
<!-- Created with Inkscape (http://www.inkscape.org/) -->

<svg
   xmlns:dc="http://purl.org/dc/elements/1.1/"
   xmlns:cc="http://creativecommons.org/ns#"
   xmlns:rdf="http://www.w3.org/1999/02/22-rdf-syntax-ns#"
   xmlns:svg="http://www.w3.org/2000/svg"
   xmlns="http://www.w3.org/2000/svg"
   xmlns:sodipodi="http://sodipodi.sourceforge.net/DTD/sodipodi-0.dtd"
   xmlns:inkscape="http://www.inkscape.org/namespaces/inkscape"
   width="184.00003"
   height="41.701729"
   viewBox="0 0 48.683341 11.033582"
   version="1.1"
   id="svg5572"
   inkscape:version="0.92.0 r15299"
   sodipodi:docname="wyndham.svg">
  <defs
     id="defs5566" />
  <sodipodi:namedview
     id="base"
     pagecolor="#ffffff"
     bordercolor="#666666"
     borderopacity="1.0"
     inkscape:pageopacity="0.0"
     inkscape:pageshadow="2"
     inkscape:zoom="2.0022322"
     inkscape:cx="208.64287"
     inkscape:cy="-60.520964"
     inkscape:document-units="mm"
     inkscape:current-layer="layer1"
     showgrid="false"
     fit-margin-top="0"
     fit-margin-left="0"
     fit-margin-right="0"
     fit-margin-bottom="0"
     units="px"
     inkscape:window-width="1280"
     inkscape:window-height="744"
     inkscape:window-x="-4"
     inkscape:window-y="-4"
     inkscape:window-maximized="1" />
  <metadata
     id="metadata5569">
    <rdf:RDF>
      <cc:Work
         rdf:about="">
        <dc:format>image/svg+xml</dc:format>
        <dc:type
           rdf:resource="http://purl.org/dc/dcmitype/StillImage" />
        <dc:title></dc:title>
      </cc:Work>
    </rdf:RDF>
  </metadata>
  <g
     inkscape:label="Layer 1"
     inkscape:groupmode="layer"
     id="layer1"
     transform="translate(-121.68943,-201.39278)">
    <path
       id="path5574"
       d="m 121.82172,209.30547 c 0,0 6.57866,-2.05324 24.16174,-2.05324 17.71051,0 24.25702,2.04075 24.25702,2.04075 0,0 -8.00876,-1.40027 -24.25702,-1.40027 -16.24818,0 -24.16174,1.41276 -24.16174,1.41276 z m 10.2188,1.06457 h 0.33119 v 1.88571 h -0.33119 v -0.79474 h -0.89991 v 0.79474 h -0.33157 v -1.88571 h 0.33157 v 0.7839 h 0.89991 z m 2.57274,0.94831 v -0.005 c 0,-0.36634 -0.2665,-0.6708 -0.64106,-0.6708 -0.37457,0 -0.63594,0.29904 -0.63594,0.66537 v 0.005 c 0,0.36644 0.26689,0.66818 0.64146,0.66818 0.37427,0 0.63554,-0.29642 0.63554,-0.66275 m -1.62454,0 v -0.005 c 0,-0.53077 0.40952,-0.97525 0.989,-0.97525 0.57918,0 0.98319,0.43906 0.98319,0.96982 v 0.005 c 0,0.53077 -0.40953,0.97535 -0.98871,0.97535 -0.57929,0 -0.98348,-0.43925 -0.98348,-0.96992 z m 2.95038,-0.64127 h -0.59807 v -0.30707 h 1.53042 v 0.30707 h -0.59836 v 1.57874 h -0.33399 z m 1.49828,-0.30706 h 1.39824 v 0.29622 h -1.06676 v 0.49039 h 0.94571 v 0.29642 h -0.94571 v 0.50636 h 1.08041 v 0.29642 h -1.41189 z m 2.02078,0 h 0.33157 v 1.58416 h 0.99152 v 0.30165 h -1.32309 z m 1.75678,1.61105 0.19939,-0.23705 c 0.18041,0.1561 0.36363,0.24509 0.59555,0.24509 0.20462,0 0.334,-0.097 0.334,-0.23706 v -0.005 c 0,-0.1347 -0.0755,-0.20733 -0.4256,-0.28818 -0.40149,-0.097 -0.6278,-0.21566 -0.6278,-0.56311 v -0.005 c 0,-0.32335 0.2693,-0.54685 0.64387,-0.54685 0.27492,0 0.4931,0.0834 0.68445,0.23697 l -0.17799,0.25058 c -0.16966,-0.12666 -0.33932,-0.19396 -0.51169,-0.19396 -0.19416,0 -0.30746,0.0996 -0.30746,0.22369 v 0.005 c 0,0.14545 0.0864,0.21014 0.4501,0.29642 0.39878,0.097 0.6034,0.23977 0.6034,0.55227 v 0.005 c 0,0.35287 -0.27744,0.56301 -0.67331,0.56301 -0.28858,0 -0.56069,-0.0996 -0.78691,-0.30165 z m 3.94718,-1.16389 v -0.005 c 0,-0.12666 -0.0888,-0.21284 -0.21295,-0.21284 -0.1347,0 -0.22631,0.0943 -0.22631,0.2263 v 0.005 c 0,0.0942 0.0378,0.16434 0.14303,0.28016 0.19377,-0.0699 0.29623,-0.15901 0.29623,-0.29362 z m 0.0109,1.02648 -0.42037,-0.42841 c -0.17528,0.0755 -0.25043,0.19126 -0.25043,0.3125 v 0.005 c 0,0.159 0.1318,0.27492 0.31511,0.27492 0.12938,0 0.248,-0.062 0.35569,-0.16433 z m 0.18854,0.19397 c -0.16162,0.15087 -0.35045,0.24509 -0.57667,0.24509 -0.35297,0 -0.61705,-0.21275 -0.61705,-0.5387 v -0.005 c 0,-0.24258 0.14303,-0.41766 0.40149,-0.52816 -0.10768,-0.13724 -0.1563,-0.25586 -0.1563,-0.39328 v -0.005 c 0,-0.25323 0.20491,-0.47411 0.54171,-0.47411 0.29904,0 0.50123,0.202 0.50123,0.45523 v 0.005 c 0,0.24791 -0.16443,0.39607 -0.41514,0.49029 l 0.32344,0.32876 c 0.0728,-0.10787 0.14003,-0.23163 0.2019,-0.36372 l 0.25072,0.13209 c -0.0755,0.15087 -0.15911,0.29893 -0.25594,0.42821 l 0.29903,0.30185 -0.248,0.17789 z m 2.87483,-0.73276 c 0.23715,0 0.38822,-0.12395 0.38822,-0.31531 v -0.005 c 0,-0.2019 -0.14545,-0.31249 -0.39065,-0.31249 h -0.48234 v 0.63322 z M 147.42005,210.37 h 0.84084 c 0.23705,0 0.42288,0.0699 0.54422,0.18854 0.0996,0.10226 0.15591,0.24248 0.15591,0.40672 v 0.005 c 0,0.30988 -0.18573,0.49571 -0.4469,0.57115 l 0.50917,0.71398 h -0.39345 l -0.46338,-0.65733 h -0.41485 v 0.65733 h -0.33157 z m 2.16355,2e-5 h 1.39824 v 0.29622 h -1.06667 v 0.49039 h 0.94562 v 0.29642 h -0.94562 v 0.50636 h 1.08032 v 0.29642 h -1.4119 z m 1.89418,1.61105 0.19939,-0.23705 c 0.18051,0.1561 0.36372,0.24509 0.59555,0.24509 0.20462,0 0.33409,-0.097 0.33409,-0.23706 v -0.005 c 0,-0.1347 -0.0755,-0.20733 -0.4256,-0.28818 -0.40158,-0.097 -0.62789,-0.21566 -0.62789,-0.56311 v -0.005 c 0,-0.32335 0.2694,-0.54685 0.64397,-0.54685 0.27492,0 0.493,0.0834 0.68435,0.23697 l -0.17799,0.25058 c -0.16966,-0.12666 -0.33932,-0.19396 -0.51169,-0.19396 -0.19406,0 -0.30736,0.0996 -0.30736,0.22369 v 0.005 c 0,0.14545 0.0864,0.21014 0.4501,0.29642 0.39868,0.097 0.6033,0.23977 0.6033,0.55227 v 0.005 c 0,0.35287 -0.27735,0.56301 -0.67331,0.56301 -0.28848,0 -0.5606,-0.0996 -0.78691,-0.30165 z m 3.60768,-0.66272 v -0.005 c 0,-0.36634 -0.2666,-0.6708 -0.64117,-0.6708 -0.37447,0 -0.63583,0.29904 -0.63583,0.66537 v 0.005 c 0,0.36644 0.26688,0.66818 0.64145,0.66818 0.37428,0 0.63555,-0.29642 0.63555,-0.66275 m -1.62455,0 v -0.005 c 0,-0.53077 0.40953,-0.97525 0.989,-0.97525 0.57919,0 0.98319,0.43906 0.98319,0.96982 v 0.005 c 0,0.53077 -0.40962,0.97535 -0.98881,0.97535 -0.57918,0 -0.98338,-0.43925 -0.98338,-0.96992 m 3.40545,-0.0135 c 0.23705,0 0.38822,-0.12395 0.38822,-0.31531 v -0.005 c 0,-0.2019 -0.14555,-0.31249 -0.39065,-0.31249 h -0.48234 v 0.63322 z m -0.81634,-0.93487 h 0.84074 c 0.23715,0 0.42289,0.0699 0.54423,0.18854 0.0996,0.10226 0.156,0.24248 0.156,0.40672 v 0.005 c 0,0.30988 -0.18573,0.49571 -0.447,0.57115 l 0.50927,0.71398 h -0.39355 l -0.46337,-0.65733 h -0.41475 v 0.65733 h -0.33157 z m 2.61918,0.30708 h -0.59807 v -0.30707 h 1.53013 v 0.30707 h -0.59807 v 1.57874 h -0.33399 z m 1.33076,1.30399 0.19948,-0.23705 c 0.18041,0.1561 0.36363,0.24509 0.59555,0.24509 0.20453,0 0.334,-0.097 0.334,-0.23706 v -0.005 c 0,-0.1347 -0.0755,-0.20733 -0.4256,-0.28818 -0.40159,-0.097 -0.6279,-0.21566 -0.6279,-0.56311 v -0.005 c 0,-0.32335 0.2694,-0.54685 0.64397,-0.54685 0.27492,0 0.493,0.0834 0.68435,0.23697 l -0.17799,0.25058 c -0.16965,-0.12666 -0.33922,-0.19396 -0.51168,-0.19396 -0.19407,0 -0.30737,0.0996 -0.30737,0.22369 v 0.005 c 0,0.14545 0.0864,0.21014 0.4501,0.29642 0.39868,0.097 0.6033,0.23977 0.6033,0.55227 v 0.005 c 0,0.35287 -0.27734,0.56301 -0.67331,0.56301 -0.28848,0 -0.56059,-0.0996 -0.7869,-0.30165 z m -33.30061,-10.42121 h 0.92819 l 1.16554,3.6223 1.20049,-3.63615 h 0.7258 l 1.2004,3.63615 1.16553,-3.6223 h 0.9004 l -1.70299,4.92041 h -0.73984 l -1.20039,-3.51055 -1.2004,3.51055 h -0.73979 z m 9.46473,2.95931 -1.94024,-2.95935 h 1.01195 l 1.36803,2.16364 1.38187,-2.16364 h 0.98396 l -1.94023,2.93834 v 1.94731 h -0.86534 z m 3.28074,-2.95931 h 0.79572 l 2.61713,3.37798 v -3.37798 h 0.84452 v 4.88555 h -0.71892 l -2.69393,-3.47569 v 3.47569 h -0.84452 z m 7.19629,4.10382 c 1.02609,0 1.69591,-0.69084 1.69591,-1.64711 v -0.0139 c 0,-0.95627 -0.66982,-1.66105 -1.69591,-1.66105 h -0.96305 v 3.32201 z m -1.82142,-4.10378 h 1.82142 c 1.53545,0 2.59641,1.05388 2.59641,2.42888 v 0.0139 c 0,1.3748 -1.06096,2.44273 -2.59641,2.44273 h -1.82142 z m 5.31902,-4e-5 h 0.85817 v 2.03107 h 2.33136 v -2.03107 h 0.85818 v 4.88555 h -0.85818 v -2.05896 h -2.33136 v 2.05896 h -0.85817 z m 8.12432,2.94531 -0.84452,-1.95418 -0.83774,1.95418 z m -1.22848,-2.98008 h 0.79581 l 2.14941,4.92032 h -0.90737 l -0.49542,-1.17948 h -2.31006 l -0.50268,1.17948 h -0.87938 z m 3.50454,0.0348 h 0.91405 l 1.48646,2.31015 1.48674,-2.31015 h 0.91415 v 4.88555 h -0.85818 v -3.50358 l -1.54271,2.30318 h -0.0276 l -1.52868,-2.28914 v 3.48954 h -0.84423 z"
       inkscape:connector-curvature="0"
       style="fill:#016fb7;fill-opacity:1;fill-rule:evenodd;stroke-width:0.26458332" />
  </g>
</svg>
